HIERARCHY
ROOT Hips
{
  OFFSET 0.0 0.0 0.0
  CHANNELS 6 XPOSITION YPOSITION ZPOSITION ZROTATION XROTATION YROTATION 
  JOINT LeftUpLeg
  {
    OFFSET 0.089458 -0.0866707 0.00101652
    CHANNELS 3 ZROTATION XROTATION YROTATION 
    JOINT LeftLeg
    {
      OFFSET 0.0 -0.444227 0.013727
      CHANNELS 3 ZROTATION XROTATION YROTATION 
      JOINT LeftFoot
      {
        OFFSET -0.00253549 -0.420924 -0.0146059
        CHANNELS 3 ZROTATION XROTATION YROTATION 
        End Site
        {
          OFFSET -0.0004 -0.0441509 0.084991
        }
      }
    }
  }
  JOINT Spine
  {
    OFFSET 0.0 0.118905 0.0
    CHANNELS 3 ZROTATION XROTATION YROTATION 
    JOINT Spine1
    {
      OFFSET 0.0 0.256574 0.00127663
      CHANNELS 3 ZROTATION XROTATION YROTATION 
      End Site
      {
        OFFSET -0.0029 0.2150836 0.02525291
      }
      JOINT RightArm
      {
        OFFSET -0.162727 -0.05365632 0.00102123
        CHANNELS 3 ZROTATION XROTATION YROTATION 
        JOINT RightForeArm
        {
          OFFSET -0.26364 0.00099144 -0.0142434
          CHANNELS 3 ZROTATION XROTATION YROTATION 
          End Site
          {
            OFFSET -0.220324 0.00085362 0.0102216
          }
        }
      }
      JOINT LeftArm
      {
        OFFSET 0.162727 -0.0536563199 0.00102123
        CHANNELS 3 ZROTATION XROTATION YROTATION 
        JOINT LeftForeArm
        {
          OFFSET 0.262597 0.00099144 -0.0142434
          CHANNELS 3 ZROTATION XROTATION YROTATION 
          End Site
          {
            OFFSET 0.220902 0.00085362 0.0102216
          }
        }
      }
    }
  }
  JOINT RightUpLeg
  {
    OFFSET -0.089458 -0.0866707 0.00101652
    CHANNELS 3 ZROTATION XROTATION YROTATION 
    JOINT RightLeg
    {
      OFFSET 0.0 -0.444227 0.013727
      CHANNELS 3 ZROTATION XROTATION YROTATION 
      JOINT RightFoot
      {
        OFFSET 0.00253549 -0.420924 -0.0146059
        CHANNELS 3 ZROTATION XROTATION YROTATION 
        End Site
        {
          OFFSET 0.0004 -0.0441509 0.084991
        }
      }
    }
  }
}
MOTION
Frames: 9
Frame Time: 0.033333
-36.689263 0.950793437605 -0.72819208 -6.44985008608 -2.80998998374 -99.0327022856 -5.65930008588 -24.1433987819 0.472983022782 1.3344300664 36.7816990768 22.7655993622 -0.930491931835 -7.09239586338 0.0224335145375 -1.83796014975 13.876400148 3.13521008141 -6.9210200138 -1.48623006021 4.10279986555 82.1633849603 -15.4998797647 15.7747624353 10.5488002863 38.2238013125 4.96990988304 -68.6673956132 -19.2589939027 11.002419616 -9.07345039723 42.1839996348 -6.03642001628 -6.99680010887 14.8442003874 3.36283019092 -1.08821999623 48.4231998567 -11.0047000454 15.4012928142 -2.52449597384 -0.286835208257 
-36.729246 0.954888437605 -0.72411358 -6.92356041729 -3.39892005672 -100.044997792 -6.9214801978 -21.1581006806 0.855367961814 1.37628994795 37.2859002263 23.5679007029 -1.77079004174 -10.3967961338 -0.0321248542761 -3.74171978065 14.3587002959 3.07748986028 -6.36584003995 -1.19985004671 3.59574028195 83.313138024 -20.5587754866 14.2526897835 14.1729003674 46.0108999853 -3.62800993757 -69.2550445988 -17.2850436193 10.2699270775 -8.08147982596 40.5615018578 -8.09520082223 -7.21570041469 7.42959974138 4.69264987963 -1.56955996891 61.2099013792 -12.8539993764 10.6276044476 4.95727872884 -0.942179346 
-36.767875 0.960749437605 -0.72078298 -7.42012029259 -3.71603015852 -100.631000702 -7.95100016092 -17.7890005895 1.07317991968 1.38215996193 36.6581990113 23.8645989978 -2.24430112352 -12.2676993532 -0.0868587085922 -5.14848005625 14.7764995523 2.80994003799 -5.70911009418 -0.783793982615 2.92239995644 82.7451258323 -21.5071404227 11.3684118876 16.0746999475 50.3446994099 -7.64624053525 -69.8239105642 -14.4751703891 8.6254121858 -6.81398027734 38.7497019729 -10.5298994453 -6.86842030012 0.312574989588 5.05939005693 -2.51316981265 71.3946013563 -12.81499985 8.49238144511 4.86791082619 -0.749713739895 
-36.806764 0.968728437605 -0.71801168 -7.84564022411 -3.55829995968 -100.581003718 -8.39849964119 -13.7932997977 1.55943005132 1.34820004793 34.8766978456 23.6894012304 -2.61638464318 -13.8921087293 -0.14387944231 -5.67011953241 15.1659996275 2.3472600354 -5.00858027969 -0.527768023476 2.20657009133 81.0082018961 -21.4350563138 6.82891704728 15.3934995683 51.0666982164 -6.36015988388 -70.1640813056 -11.7932069653 6.60634039214 -5.1831398512 36.457797846 -13.2403993995 -5.97315026645 -6.28845015467 4.47960005772 -3.99720983674 78.1164022544 -11.745599693 8.91274629135 1.30011914471 -0.520514149134 
-36.845552 0.975830437605 -0.71556838 -8.09014050583 -3.2263600231 -100.323000152 -8.52447991911 -9.63880991427 2.40028001916 1.30525000416 32.5443999799 23.1177997743 -3.07003940455 -15.6689252391 -0.222135280849 -5.76025028181 15.4707011965 1.88749012029 -4.43322990345 -0.518331957055 1.54709003392 78.728639921 -20.5348117679 1.66350868733 13.3731987675 48.5110975611 -2.33159990574 -70.4005629453 -9.01123505786 4.91061957218 -3.08208999268 32.6448993834 -16.6711991507 -4.84566959582 -12.7481997462 3.7316102469 -5.59104045598 81.4649981176 -10.2540998217 9.6253612718 -1.51666570332 -0.338855343039 
-36.884666 0.981984437605 -0.71334968 -8.23700920978 -2.94371975161 -100.017998054 -8.64640989485 -5.4390700276 3.18765013942 1.17383001418 29.8089023871 22.1963987175 -3.19605020488 -16.8915393458 -0.262851532595 -5.75018002166 15.619800811 1.39166000801 -3.85369005992 -0.599742048989 0.914840019743 76.6857371705 -19.172224887 -2.89623456895 11.7345996734 45.6814014144 1.39335997806 -70.4464686467 -6.45918567402 3.75017384729 -0.880388011961 28.0839995839 -20.9436002973 -3.70757011546 -18.6552000574 3.16313979214 -5.54591979943 81.4214966428 -10.1424006156 9.08697331802 -3.38640800394 -0.191162320634 
-36.923797 0.987280437605 -0.71140458 -8.40900020327 -2.62281996204 -99.4351985032 -8.68256037858 -1.13421000779 3.25445984823 0.741845041806 26.8236008707 21.6446013948 -2.72075313535 -17.5557257237 -0.219347363048 -5.46253001986 15.7426007821 0.739176999161 -3.20746003589 -0.577483049454 0.246638984703 75.3158471098 -17.139270307 -6.46442656354 10.3155996988 43.3572997757 4.37643005031 -69.9097933628 -7.2786858579 2.80401292789 1.05438003743 26.984100071 -25.7931985326 -2.7017801505 -23.3554015649 2.43147007801 -3.94351985411 77.9947019438 -11.6731006501 8.82608058229 -5.79412588566 -0.0157884258286 
-36.962326 0.990267437605 -0.70977658 -8.62043980808 -2.15327988821 -98.5236960981 -8.48985000624 3.17234005695 2.98183007274 0.266046006734 23.9246005021 21.4490001449 -1.9640433074 -18.3923077838 -0.135708521691 -4.7391498075 16.0136004902 -0.0126171995127 -2.62337000571 -0.48263600107 -0.417732982256 74.4122199128 -15.6944240428 -9.22268490796 9.27781990249 41.4603991489 6.37249050977 -69.1070412297 -10.9922486106 1.77080178113 3.05673995902 29.333200202 -31.1463012379 -1.94561993933 -26.7480999597 1.22020006173 -2.60688982646 71.5540999338 -13.2247002097 9.63580121594 -7.96501314778 0.166422561707 
-37.000665 0.990275437605 -0.70858168 -8.85869046671 -1.71297003582 -97.5859999175 -8.27329971238 7.33153017773 2.96814002577 -0.0417873007804 21.3324002781 21.1375998679 -1.41171675179 -19.4360990003 -0.070742970627 -3.97266000243 16.3245994937 -0.635127017923 -2.05311985979 -0.305958990881 -0.953690989516 73.4612185237 -15.9680055624 -11.2345760384 8.90278958309 40.5457002152 6.96184021249 -68.6873124448 -13.4995154322 0.578416384132 5.22490987307 30.8234996676 -36.4571967894 -1.50433987991 -28.75849784 -0.202107005088 -1.81426003366 62.4798999233 -14.1299000577 10.1216761141 -9.01924174711 0.271964018804 
